<svg width="21" height="12" viewBox="0 0 21 12" fill="none" xmlns="http://www.w3.org/2000/svg">
<path d="M19.6834 4.90722C19.6835 4.83183 19.6615 4.75808 19.6199 4.69515C19.5784 4.63221 19.5193 4.58288 19.45 4.55332L10.2635 0.728132C10.1718 0.690476 10.069 0.690476 9.97735 0.728132L0.790848 4.55332C0.720623 4.58107 0.660366 4.6293 0.617904 4.69174C0.575442 4.75419 0.552734 4.82794 0.552734 4.90345C0.552734 4.97896 0.575442 5.05275 0.617904 5.11519C0.660366 5.17763 0.720623 5.22586 0.790848 5.25362L9.97735 8.70984C10.0197 8.71762 10.063 8.71762 10.1053 8.70984H10.2409L19.4198 5.25362C19.4937 5.22933 19.5584 5.18321 19.6054 5.12137C19.6525 5.05953 19.6797 4.98484 19.6834 4.90722ZM10.1204 7.95685L1.95797 4.88463L10.1204 1.48112L18.2829 4.88463L10.1204 7.95685Z" fill="#797980"/>
<path d="M8.23019 9.44024L8.01935 9.97486L1.762 7.61047L1.97284 7.08337L0.986416 7.22644L0 7.37704L0.624984 8.16015L1.24244 8.93573L1.49092 8.31828L7.74828 10.6751L7.50732 11.3001L8.49374 11.1495L9.47263 10.9914L8.85518 10.2158L8.23019 9.44024Z" fill="#797980"/>
<path d="M19.2616 7.22644L18.2752 7.08337L18.486 7.61047L12.2287 9.97486L12.0178 9.44024L11.3928 10.2158L10.7754 10.9914L11.7543 11.1495L12.7407 11.3001L12.4997 10.6751L18.7571 8.31828L18.9981 8.93573L19.623 8.16015L20.248 7.37704L19.2616 7.22644Z" fill="#797980"/>
</svg>
