<svg width="18" height="14" viewBox="0 0 18 14" fill="none" xmlns="http://www.w3.org/2000/svg">
<path d="M16.9216 5.73046H15.4158V1.69165C15.3559 1.22435 15.1258 0.794702 14.7686 0.483269C14.4113 0.171837 13.9515 0 13.4753 0C12.9992 0 12.5394 0.171837 12.1821 0.483269C11.8249 0.794702 11.5947 1.22435 11.5348 1.69165V1.8913C11.2285 1.97489 10.9582 2.15508 10.7648 2.40454C10.5715 2.65399 10.4658 2.95906 10.4637 3.27339H13.3745C13.3729 2.96006 13.2682 2.65576 13.0764 2.40643C12.8845 2.15711 12.6159 1.97629 12.311 1.8913V1.69165C12.3563 1.41847 12.4982 1.17008 12.7115 0.990861C12.9248 0.811639 13.1955 0.713258 13.4753 0.713258C13.7552 0.713258 14.0259 0.811639 14.2392 0.990861C14.4525 1.17008 14.5944 1.41847 14.6396 1.69165V5.73812H1.22697C1.07079 5.7253 0.913626 5.74466 0.765395 5.79499C0.617164 5.84532 0.481092 5.92552 0.365785 6.03051C0.250477 6.1355 0.158418 6.26301 0.0954612 6.40498C0.0325043 6.54695 0 6.7003 0 6.85533C0 7.01036 0.0325043 7.16371 0.0954612 7.30568C0.158418 7.44765 0.250477 7.57516 0.365785 7.68015C0.481092 7.78514 0.617164 7.86532 0.765395 7.91564C0.913626 7.96597 1.07079 7.98533 1.22697 7.97251H1.62284V9.94585C1.62284 10.6871 1.92049 11.398 2.45034 11.9222C2.9802 12.4463 3.69888 12.7408 4.44821 12.7408H4.61895V13.547C4.62094 13.6665 4.66984 13.7806 4.75529 13.8651C4.84075 13.9497 4.95609 13.998 5.07692 14C5.13706 14 5.1966 13.9883 5.25217 13.9655C5.30773 13.9427 5.35821 13.9094 5.40073 13.8673C5.44326 13.8253 5.47697 13.7753 5.49999 13.7203C5.523 13.6654 5.53485 13.6065 5.53485 13.547V12.7408H12.4663V13.547C12.4683 13.6665 12.5172 13.7806 12.6026 13.8651C12.6881 13.9497 12.8034 13.998 12.9243 14C13.0457 14 13.1622 13.9523 13.2481 13.8673C13.334 13.7824 13.3822 13.6671 13.3822 13.547V12.7408H13.7393C14.4872 12.7387 15.2039 12.4434 15.732 11.9194C16.2602 11.3955 16.5569 10.6858 16.5569 9.94585V7.97251H16.9605C17.2439 7.94926 17.508 7.82149 17.7005 7.61454C17.8931 7.40759 18 7.1366 18 6.85533C18 6.57406 17.8931 6.30307 17.7005 6.09612C17.508 5.88917 17.2439 5.76138 16.9605 5.73812L16.9216 5.73046ZM15.7419 9.93816C15.7419 10.4744 15.527 10.9889 15.1444 11.3688C14.7618 11.7488 14.2426 11.9632 13.7005 11.9653H4.4249C3.88143 11.9653 3.36022 11.7517 2.97593 11.3715C2.59163 10.9914 2.37573 10.4758 2.37573 9.93816V7.96485H15.7185L15.7419 9.93816ZM16.9216 7.19702H1.22697C1.13361 7.19704 1.04395 7.16087 0.97721 7.09628C0.910469 7.0317 0.871935 6.94382 0.869905 6.85149C0.871886 6.75843 0.910153 6.66972 0.976689 6.6039C1.04322 6.53808 1.1329 6.50025 1.22697 6.49829H16.9216C17.015 6.5003 17.1038 6.53839 17.1691 6.60441C17.2344 6.67044 17.271 6.75913 17.2709 6.85149C17.2709 6.94312 17.2342 7.03102 17.1687 7.09582C17.1032 7.16061 17.0143 7.19702 16.9216 7.19702Z" fill="#797980"/>
</svg>
