<svg width="15" height="14" viewBox="0 0 15 14" fill="none" xmlns="http://www.w3.org/2000/svg">
<path d="M14.994 8.25939L13.6011 5.09852V2.38811C13.6026 2.10671 13.5075 1.833 13.3312 1.61102C13.1549 1.38904 12.9076 1.23169 12.6291 1.16429C9.25717 0.278569 5.70712 0.278569 2.33522 1.16429C2.06575 1.23955 1.82871 1.3991 1.66017 1.61865C1.49162 1.83821 1.40077 2.10577 1.40147 2.38061V5.11352L0.00853966 8.2744C-0.00284655 8.32129 -0.00284655 8.37016 0.00853966 8.41705V11.3827C0.00752907 11.4987 0.0299503 11.6138 0.0744983 11.7212C0.119046 11.8286 0.184872 11.9264 0.268123 12.0087C0.351375 12.0911 0.450422 12.1565 0.559566 12.2011C0.668709 12.2457 0.785787 12.2687 0.904027 12.2687H1.96016V13.057C1.96016 13.1745 2.00777 13.2872 2.09245 13.3702C2.17713 13.4533 2.29197 13.5 2.41173 13.5C2.53149 13.5 2.64633 13.4533 2.73102 13.3702C2.8157 13.2872 2.86331 13.1745 2.86331 13.057V12.2687H12.2005V13.057C12.2005 13.1152 12.2122 13.1728 12.2349 13.2265C12.2576 13.2803 12.2908 13.3291 12.3328 13.3702C12.3747 13.4114 12.4245 13.444 12.4793 13.4663C12.534 13.4885 12.5928 13.5 12.6521 13.5C12.7114 13.5 12.7701 13.4885 12.8248 13.4663C12.8796 13.444 12.9294 13.4114 12.9713 13.3702C13.0133 13.3291 13.0466 13.2803 13.0692 13.2265C13.0919 13.1728 13.1036 13.1152 13.1036 13.057V12.2687H14.1598C14.3898 12.2515 14.6044 12.1485 14.7596 11.981C14.9147 11.8134 14.9986 11.594 14.994 11.3677V8.40204C15.002 8.35482 15.002 8.30662 14.994 8.25939ZM2.15916 2.35809C2.15798 2.24666 2.19403 2.1379 2.26174 2.04843C2.32945 1.95895 2.4251 1.89369 2.53417 1.86256C5.77815 1.00992 9.19375 1.00992 12.4377 1.86256C12.549 1.89205 12.6474 1.95643 12.7179 2.0459C12.7883 2.13538 12.827 2.24502 12.8281 2.35809V4.76816H11.7719V3.6044C11.7719 3.50484 11.7316 3.40936 11.6598 3.33896C11.5881 3.26856 11.4907 3.229 11.3892 3.229H8.28192C8.18042 3.229 8.08312 3.26856 8.01135 3.33896C7.93959 3.40936 7.89924 3.50484 7.89924 3.6044V4.76816H7.08798V3.6044C7.08798 3.50484 7.04768 3.40936 6.97592 3.33896C6.90415 3.26856 6.8068 3.229 6.70531 3.229H3.64393C3.54244 3.229 3.44513 3.26856 3.37337 3.33896C3.3016 3.40936 3.26126 3.50484 3.26126 3.6044V4.76816H2.19746L2.15916 2.35809ZM11.0065 4.79068H8.66459V4.00235H11.0065V4.79068ZM6.32263 4.79068H4.0266V4.00235H6.32263V4.79068ZM2.02906 5.54149H12.9582L14.0526 8.02664H0.919302L2.02906 5.54149ZM14.2746 11.3677C14.2746 11.4036 14.2601 11.4379 14.2342 11.4633C14.2084 11.4886 14.1734 11.5029 14.1368 11.5029H0.850447C0.815253 11.5009 0.782111 11.4859 0.757909 11.4607C0.733706 11.4356 0.72025 11.4023 0.720305 11.3677V8.77744H14.2287L14.2746 11.3677Z" fill="#797980"/>
</svg>
