<svg width="17" height="14" viewBox="0 0 17 14" fill="none" xmlns="http://www.w3.org/2000/svg">
<path d="M3.66455 1.70325H2.59282C2.47613 1.70325 2.36422 1.74895 2.2817 1.83029C2.19919 1.91163 2.15283 2.02196 2.15283 2.137V3.19894C2.15283 3.31397 2.19919 3.4243 2.2817 3.50564C2.36422 3.58699 2.47613 3.63269 2.59282 3.63269H3.66455C3.72233 3.63269 3.77954 3.62147 3.83292 3.59967C3.88631 3.57787 3.93481 3.54592 3.97567 3.50564C4.01653 3.46537 4.04894 3.41755 4.07105 3.36492C4.09317 3.3123 4.10454 3.2559 4.10454 3.19894V2.14244C4.10527 2.08502 4.09444 2.02803 4.07265 1.97478C4.05087 1.92152 4.01857 1.87306 3.97764 1.83221C3.93671 1.79135 3.88797 1.75891 3.83422 1.73678C3.78047 1.71464 3.7228 1.70324 3.66455 1.70325ZM3.55282 3.08336H2.70456V2.24713H3.55282V3.08336Z" fill="#797980"/>
<path d="M6.24813 1.70325H5.17778C5.06109 1.70325 4.94918 1.74895 4.86667 1.83029C4.78415 1.91163 4.73779 2.02196 4.73779 2.137V3.19894C4.73779 3.31397 4.78415 3.4243 4.86667 3.50564C4.94918 3.58699 5.06109 3.63269 5.17778 3.63269H6.24813C6.36483 3.63269 6.47673 3.58699 6.55925 3.50564C6.64177 3.4243 6.68814 3.31397 6.68814 3.19894V2.14244C6.68887 2.08502 6.67802 2.02803 6.65623 1.97478C6.63445 1.92152 6.60215 1.87306 6.56122 1.83221C6.52029 1.79135 6.47155 1.75891 6.4178 1.73678C6.36405 1.71464 6.30638 1.70324 6.24813 1.70325ZM6.13642 3.08336H5.28952V2.24713H6.13642V3.08336Z" fill="#797980"/>
<path d="M3.66455 4.17657H2.59282C2.47613 4.17657 2.36422 4.22227 2.2817 4.30362C2.19919 4.38496 2.15283 4.49529 2.15283 4.61032V5.66682C2.15283 5.78186 2.19919 5.89219 2.2817 5.97353C2.36422 6.05488 2.47613 6.10057 2.59282 6.10057H3.66455C3.72233 6.10057 3.77954 6.08935 3.83292 6.06756C3.88631 6.04576 3.93481 6.01381 3.97567 5.97353C4.01653 5.93325 4.04894 5.88544 4.07105 5.83281C4.09317 5.78019 4.10454 5.72379 4.10454 5.66682V4.61032C4.10454 4.55336 4.09317 4.49696 4.07105 4.44434C4.04894 4.39171 4.01653 4.34389 3.97567 4.30362C3.93481 4.26334 3.88631 4.23139 3.83292 4.20959C3.77954 4.18779 3.72233 4.17657 3.66455 4.17657ZM3.55282 5.55669H2.70456V4.72046H3.55282V5.55669Z" fill="#797980"/>
<path d="M6.24813 4.17657H5.17778C5.06109 4.17657 4.94918 4.22227 4.86667 4.30362C4.78415 4.38496 4.73779 4.49529 4.73779 4.61032V5.66682C4.73779 5.78186 4.78415 5.89219 4.86667 5.97353C4.94918 6.05488 5.06109 6.10057 5.17778 6.10057H6.24813C6.36483 6.10057 6.47673 6.05488 6.55925 5.97353C6.64177 5.89219 6.68814 5.78186 6.68814 5.66682V4.61032C6.68814 4.49529 6.64177 4.38496 6.55925 4.30362C6.47673 4.22227 6.36483 4.17657 6.24813 4.17657ZM6.13642 5.55669H5.28952V4.72046H6.13642V5.55669Z" fill="#797980"/>
<path d="M3.66455 6.6499H2.59283C2.53493 6.6499 2.47761 6.66117 2.42413 6.68305C2.37066 6.70493 2.32209 6.737 2.28122 6.77743C2.24034 6.81785 2.20795 6.86582 2.18592 6.91861C2.16389 6.97139 2.15265 7.02794 2.15283 7.08501V8.14015C2.15283 8.25519 2.19919 8.36552 2.28171 8.44686C2.36422 8.5282 2.47613 8.5739 2.59283 8.5739H3.66455C3.72233 8.5739 3.77954 8.56268 3.83293 8.54089C3.88631 8.51909 3.93481 8.48714 3.97567 8.44686C4.01653 8.40658 4.04894 8.35877 4.07106 8.30614C4.09317 8.25352 4.10454 8.19711 4.10454 8.14015V7.08501C4.10473 7.02794 4.09349 6.97139 4.07146 6.91861C4.04943 6.86582 4.01704 6.81785 3.97616 6.77743C3.93528 6.737 3.88672 6.70493 3.83325 6.68305C3.77977 6.66117 3.72245 6.6499 3.66455 6.6499ZM3.55282 8.03002H2.70456V7.19379H3.55282V8.03002Z" fill="#797980"/>
<path d="M6.24813 6.6499H5.17779C5.11989 6.6499 5.06257 6.66117 5.00909 6.68305C4.95562 6.70493 4.90706 6.737 4.86618 6.77743C4.8253 6.81785 4.79291 6.86582 4.77088 6.91861C4.74885 6.97139 4.73761 7.02794 4.7378 7.08501V8.14015C4.7378 8.25519 4.78415 8.36552 4.86667 8.44686C4.94918 8.5282 5.06109 8.5739 5.17779 8.5739H6.24813C6.36483 8.5739 6.47674 8.5282 6.55925 8.44686C6.64177 8.36552 6.68814 8.25519 6.68814 8.14015V7.08501C6.68832 7.02794 6.67707 6.97139 6.65504 6.91861C6.63301 6.86582 6.60063 6.81785 6.55976 6.77743C6.51888 6.737 6.4703 6.70493 6.41683 6.68305C6.36335 6.66117 6.30603 6.6499 6.24813 6.6499ZM6.13642 8.03002H5.28952V7.19379H6.13642V8.03002Z" fill="#797980"/>
<path d="M15.2177 6.09103H8.93632C8.81971 6.09074 8.70395 6.11053 8.59426 6.1495V1.15934C8.59353 0.889583 8.48441 0.631099 8.29078 0.440479C8.09715 0.249858 7.8348 0.142632 7.56115 0.142273H1.27977C1.00625 0.142633 0.744036 0.249902 0.55063 0.440562C0.357223 0.631221 0.248412 0.889708 0.248047 1.15934V13.8577H16.248V7.1081C16.2477 6.83871 16.1391 6.58042 15.946 6.3898C15.7528 6.19918 15.491 6.09175 15.2177 6.09103ZM6.13633 13.1779H4.69632V9.97167H6.13633V13.1779ZM4.1446 13.1779H2.70461V9.97167H4.1446V13.1779ZM7.9046 13.1779H6.68806V9.86153C6.68806 9.74649 6.64168 9.63617 6.55917 9.55482C6.47665 9.47348 6.36474 9.42778 6.24805 9.42778H2.59287C2.47618 9.42778 2.36427 9.47348 2.28176 9.55482C2.19924 9.63617 2.15288 9.74649 2.15288 9.86153V13.1779H0.937702V1.15934C0.937702 1.11506 0.946559 1.07121 0.963749 1.0303C0.98094 0.989385 1.00614 0.952209 1.0379 0.920897C1.06966 0.889584 1.10737 0.864747 1.14888 0.847801C1.19038 0.830854 1.23485 0.822132 1.27977 0.822132H7.56115C7.652 0.822131 7.73916 0.857613 7.80353 0.920814C7.8679 0.984014 7.90423 1.06978 7.9046 1.15934V13.1779ZM15.5598 13.1779H8.59426V7.1081C8.59426 7.01867 8.63029 6.9329 8.69444 6.86966C8.75859 6.80642 8.8456 6.77089 8.93632 6.77089H15.2177C15.3084 6.77089 15.3954 6.80642 15.4596 6.86966C15.5237 6.9329 15.5598 7.01867 15.5598 7.1081V13.1779Z" fill="#797980"/>
<path d="M11.3199 7.65063H10.2496C10.1328 7.65099 10.0209 7.697 9.93838 7.77856C9.8559 7.86012 9.80957 7.97058 9.80957 8.08574V9.14088C9.80957 9.25592 9.85594 9.36625 9.93846 9.44759C10.021 9.52894 10.1329 9.57463 10.2496 9.57463H11.3199C11.4367 9.57464 11.5488 9.52898 11.6315 9.44768C11.7143 9.36637 11.7609 9.25605 11.7613 9.14088V8.08574C11.7609 7.97046 11.7143 7.85999 11.6316 7.77847C11.5489 7.69695 11.4369 7.65099 11.3199 7.65063ZM11.2096 9.03075H10.3613V8.19452H11.2096V9.03075Z" fill="#797980"/>
<path d="M13.9048 7.65063H12.8331C12.7162 7.65099 12.6043 7.697 12.5219 7.77856C12.4394 7.86012 12.3931 7.97058 12.3931 8.08574V9.14088C12.3931 9.25592 12.4394 9.36625 12.5219 9.44759C12.6045 9.52894 12.7164 9.57463 12.8331 9.57463H13.9048C14.0215 9.57463 14.1334 9.52894 14.2159 9.44759C14.2984 9.36625 14.3448 9.25592 14.3448 9.14088V8.08574C14.3448 7.97058 14.2985 7.86012 14.216 7.77856C14.1335 7.697 14.0216 7.65099 13.9048 7.65063ZM13.7931 9.03075H12.9448V8.19452H13.7931V9.03075Z" fill="#797980"/>
<path d="M11.3199 10.1253H10.2496C10.1329 10.1253 10.021 10.171 9.93846 10.2523C9.85594 10.3337 9.80957 10.444 9.80957 10.5591V11.6142C9.80957 11.7294 9.8559 11.8398 9.93838 11.9214C10.0209 12.0029 10.1328 12.0489 10.2496 12.0493H11.3199C11.4369 12.0489 11.5489 12.003 11.6316 11.9215C11.7143 11.8399 11.7609 11.7295 11.7613 11.6142V10.5591C11.7609 10.4439 11.7143 10.3336 11.6315 10.2523C11.5488 10.171 11.4367 10.1253 11.3199 10.1253ZM11.2096 11.5054H10.3613V10.6692H11.2096V11.5054Z" fill="#797980"/>
<path d="M13.9048 10.1253H12.8331C12.7164 10.1253 12.6045 10.171 12.5219 10.2523C12.4394 10.3337 12.3931 10.444 12.3931 10.5591V11.6142C12.3931 11.7294 12.4394 11.8398 12.5219 11.9214C12.6043 12.0029 12.7162 12.0489 12.8331 12.0493H13.9048C14.0216 12.0489 14.1335 12.0029 14.216 11.9214C14.2985 11.8398 14.3448 11.7294 14.3448 11.6142V10.5591C14.3448 10.444 14.2984 10.3337 14.2159 10.2523C14.1334 10.171 14.0215 10.1253 13.9048 10.1253ZM13.7931 11.5054H12.9448V10.6692H13.7931V11.5054Z" fill="#797980"/>
</svg>
